<svg width="85" height="42" viewBox="0 0 85 42" fill="none" xmlns="http://www.w3.org/2000/svg">
<path d="M13.1462 13.1029H13.1433C10.7453 13.1029 8.80127 14.8305 8.80127 16.9615V16.9641C8.80127 19.0952 10.7453 20.8228 13.1433 20.8228H13.1462C15.5442 20.8228 17.4882 19.0952 17.4882 16.9641V16.9615C17.4882 14.8305 15.5442 13.1029 13.1462 13.1029Z" fill="#2196F3"/>
<path d="M45.1949 11.8693C45.1881 8.90934 43.8622 6.07227 41.5073 3.979C39.1524 1.88572 35.9603 0.706718 32.6296 0.699997V0.699997C29.2979 0.705374 26.1044 1.88379 23.7483 3.97721C21.3921 6.07062 20.0654 8.90846 20.0586 11.8693V28.1922C20.0586 28.1922 45.192 25.7045 45.1949 11.8719V11.8693Z" fill="#2196F3"/>
<path d="M0 33.5495C0.00604098 35.6091 0.929149 37.5829 2.56761 39.0395C4.20607 40.4961 6.42668 41.3171 8.74418 41.3231C11.0612 41.3171 13.2814 40.4964 14.9197 39.0404C16.5581 37.5843 17.4816 35.6112 17.4884 33.5521V22.1944C17.4884 22.1944 0 23.9267 0 33.5495ZM8.74418 35.5845C8.2913 35.5845 7.84859 35.4652 7.47203 35.2415C7.09548 35.0179 6.80199 34.7001 6.62868 34.3283C6.45537 33.9564 6.41002 33.5473 6.49838 33.1525C6.58673 32.7578 6.80481 32.3952 7.12505 32.1106C7.44528 31.826 7.85328 31.6322 8.29746 31.5537C8.74164 31.4751 9.20204 31.5154 9.62045 31.6695C10.0389 31.8235 10.3965 32.0843 10.6481 32.419C10.8997 32.7536 11.034 33.1471 11.034 33.5495C11.0351 33.8174 10.9767 34.0828 10.8622 34.3306C10.7476 34.5784 10.5791 34.8036 10.3664 34.9934C10.1536 35.1832 9.90081 35.3338 9.62244 35.4365C9.34406 35.5392 9.04561 35.5921 8.74418 35.5921V35.5845Z" fill="#2196F3"/>
<path d="M26.4175 34.4638H24.73V36.2069H23.8511V31.9413H26.6284V32.6532H24.73V33.7548H26.4175V34.4638ZM30.6421 34.1708C30.6421 34.5907 30.5679 34.9589 30.4194 35.2753C30.271 35.5917 30.0581 35.8358 29.7808 36.0077C29.5054 36.1796 29.189 36.2655 28.8315 36.2655C28.478 36.2655 28.1626 36.1806 27.8853 36.0106C27.6079 35.8407 27.3931 35.5985 27.2407 35.2841C27.0884 34.9677 27.0112 34.6044 27.0093 34.1942V33.9833C27.0093 33.5634 27.0845 33.1942 27.2349 32.8759C27.3872 32.5556 27.6011 32.3104 27.8765 32.1405C28.1538 31.9686 28.4702 31.8827 28.8257 31.8827C29.1812 31.8827 29.4966 31.9686 29.772 32.1405C30.0493 32.3104 30.2632 32.5556 30.4136 32.8759C30.5659 33.1942 30.6421 33.5624 30.6421 33.9804V34.1708ZM29.7515 33.9774C29.7515 33.5302 29.6714 33.1903 29.5112 32.9579C29.3511 32.7255 29.1226 32.6093 28.8257 32.6093C28.5308 32.6093 28.3032 32.7245 28.1431 32.955C27.9829 33.1835 27.9019 33.5194 27.8999 33.9628V34.1708C27.8999 34.6063 27.98 34.9442 28.1401 35.1845C28.3003 35.4247 28.5308 35.5448 28.8315 35.5448C29.1265 35.5448 29.353 35.4296 29.5112 35.1991C29.6694 34.9667 29.7495 34.6288 29.7515 34.1854V33.9774ZM33.4927 35.0878C33.4927 34.9218 33.4341 34.7948 33.3169 34.7069C33.1997 34.6171 32.9888 34.5233 32.6841 34.4257C32.3794 34.3261 32.1382 34.2284 31.9604 34.1327C31.4761 33.871 31.2339 33.5184 31.2339 33.0751C31.2339 32.8446 31.2983 32.6395 31.4272 32.4599C31.5581 32.2782 31.7446 32.1366 31.9868 32.035C32.231 31.9335 32.5044 31.8827 32.8071 31.8827C33.1118 31.8827 33.3833 31.9384 33.6216 32.0497C33.8599 32.1591 34.0444 32.3143 34.1753 32.5155C34.3081 32.7167 34.3745 32.9452 34.3745 33.2011H33.4956C33.4956 33.0058 33.4341 32.8544 33.311 32.747C33.188 32.6376 33.0151 32.5829 32.7925 32.5829C32.5776 32.5829 32.4106 32.6288 32.2915 32.7206C32.1724 32.8104 32.1128 32.9296 32.1128 33.078C32.1128 33.2167 32.1821 33.3329 32.3208 33.4267C32.4614 33.5204 32.6675 33.6083 32.939 33.6903C33.439 33.8407 33.8032 34.0272 34.0317 34.2499C34.2603 34.4725 34.3745 34.7499 34.3745 35.0819C34.3745 35.4511 34.2349 35.7411 33.9556 35.952C33.6763 36.161 33.3003 36.2655 32.8276 36.2655C32.4995 36.2655 32.2007 36.2059 31.9312 36.0868C31.6616 35.9657 31.4556 35.8007 31.313 35.5917C31.1724 35.3827 31.1021 35.1405 31.1021 34.8651H31.9839C31.9839 35.3358 32.2651 35.5712 32.8276 35.5712C33.0366 35.5712 33.1997 35.5292 33.3169 35.4452C33.4341 35.3593 33.4927 35.2401 33.4927 35.0878ZM38.1831 32.6532H36.8765V36.2069H35.9976V32.6532H34.7085V31.9413H38.1831V32.6532ZM41.2534 34.3583H39.5659V35.5009H41.5464V36.2069H38.687V31.9413H41.5405V32.6532H39.5659V33.6698H41.2534V34.3583ZM43.6411 34.6454H42.9409V36.2069H42.062V31.9413H43.647C44.1509 31.9413 44.5396 32.0536 44.813 32.2782C45.0864 32.5028 45.2231 32.8202 45.2231 33.2304C45.2231 33.5214 45.1597 33.7645 45.0327 33.9599C44.9077 34.1532 44.7173 34.3075 44.4614 34.4227L45.3843 36.1659V36.2069H44.4409L43.6411 34.6454ZM42.9409 33.9335H43.6499C43.8706 33.9335 44.0415 33.8778 44.1626 33.7665C44.2837 33.6532 44.3442 33.4979 44.3442 33.3007C44.3442 33.0995 44.2866 32.9413 44.1714 32.8261C44.0581 32.7108 43.8833 32.6532 43.647 32.6532H42.9409V33.9335ZM48.2671 34.704V36.2069H47.3882V31.9413H49.0522C49.3726 31.9413 49.6538 31.9999 49.896 32.1171C50.1401 32.2343 50.3276 32.4013 50.4585 32.6181C50.5894 32.8329 50.6548 33.078 50.6548 33.3534C50.6548 33.7714 50.5112 34.1015 50.2241 34.3436C49.939 34.5839 49.5435 34.704 49.0376 34.704H48.2671ZM48.2671 33.9921H49.0522C49.2847 33.9921 49.4614 33.9374 49.5825 33.828C49.7056 33.7186 49.7671 33.5624 49.7671 33.3593C49.7671 33.1503 49.7056 32.9813 49.5825 32.8524C49.4595 32.7235 49.2896 32.6571 49.0728 32.6532H48.2671V33.9921ZM53.8276 34.3583H52.1401V35.5009H54.1206V36.2069H51.2612V31.9413H54.1147V32.6532H52.1401V33.6698H53.8276V34.3583ZM57.9058 32.6532H56.5991V36.2069H55.7202V32.6532H54.4312V31.9413H57.9058V32.6532ZM60.9761 34.3583H59.2886V35.5009H61.269V36.2069H58.4097V31.9413H61.2632V32.6532H59.2886V33.6698H60.9761V34.3583ZM63.3638 34.6454H62.6636V36.2069H61.7847V31.9413H63.3696C63.8735 31.9413 64.2622 32.0536 64.5356 32.2782C64.8091 32.5028 64.9458 32.8202 64.9458 33.2304C64.9458 33.5214 64.8823 33.7645 64.7554 33.9599C64.6304 34.1532 64.4399 34.3075 64.1841 34.4227L65.1069 36.1659V36.2069H64.1636L63.3638 34.6454ZM62.6636 33.9335H63.3726C63.5933 33.9335 63.7642 33.8778 63.8853 33.7665C64.0063 33.6532 64.0669 33.4979 64.0669 33.3007C64.0669 33.0995 64.0093 32.9413 63.894 32.8261C63.7808 32.7108 63.606 32.6532 63.3696 32.6532H62.6636V33.9335ZM67.8286 35.0878C67.8286 34.9218 67.77 34.7948 67.6528 34.7069C67.5356 34.6171 67.3247 34.5233 67.02 34.4257C66.7153 34.3261 66.4741 34.2284 66.2964 34.1327C65.812 33.871 65.5698 33.5184 65.5698 33.0751C65.5698 32.8446 65.6343 32.6395 65.7632 32.4599C65.894 32.2782 66.0806 32.1366 66.3228 32.035C66.5669 31.9335 66.8403 31.8827 67.1431 31.8827C67.4478 31.8827 67.7192 31.9384 67.9575 32.0497C68.1958 32.1591 68.3804 32.3143 68.5112 32.5155C68.644 32.7167 68.7104 32.9452 68.7104 33.2011H67.8315C67.8315 33.0058 67.77 32.8544 67.647 32.747C67.5239 32.6376 67.3511 32.5829 67.1284 32.5829C66.9136 32.5829 66.7466 32.6288 66.6274 32.7206C66.5083 32.8104 66.4487 32.9296 66.4487 33.078C66.4487 33.2167 66.5181 33.3329 66.6567 33.4267C66.7974 33.5204 67.0034 33.6083 67.2749 33.6903C67.7749 33.8407 68.1392 34.0272 68.3677 34.2499C68.5962 34.4725 68.7104 34.7499 68.7104 35.0819C68.7104 35.4511 68.5708 35.7411 68.2915 35.952C68.0122 36.161 67.6362 36.2655 67.1636 36.2655C66.8354 36.2655 66.5366 36.2059 66.2671 36.0868C65.9976 35.9657 65.7915 35.8007 65.6489 35.5917C65.5083 35.3827 65.438 35.1405 65.438 34.8651H66.3198C66.3198 35.3358 66.6011 35.5712 67.1636 35.5712C67.3726 35.5712 67.5356 35.5292 67.6528 35.4452C67.77 35.3593 67.8286 35.2401 67.8286 35.0878Z" fill="#2196F3"/>
</svg>
