<svg width="94" height="45" viewBox="0 0 94 45" fill="none" xmlns="http://www.w3.org/2000/svg">
<path d="M47.425 21.4082C46.9819 20.8184 46.7699 20.1213 46.8203 19.4196V16.5364C46.8203 15.6526 47.0207 14.9809 47.4216 14.5214C47.8224 14.0619 48.511 13.8331 49.4871 13.8351C50.4044 13.8351 51.0555 14.0306 51.4405 14.4217C51.8605 14.9207 52.0648 15.5308 52.018 16.1463V16.8239H50.3772V16.1375C50.383 15.9129 50.3671 15.6882 50.3296 15.4659C50.306 15.3138 50.2234 15.1732 50.0952 15.067C49.9267 14.9525 49.7145 14.8969 49.5007 14.9115C49.2759 14.897 49.0529 14.9556 48.8756 15.0758C48.7327 15.1935 48.6374 15.3477 48.6038 15.5157C48.5567 15.7511 48.5351 15.9897 48.5393 16.2285V19.7276C48.5134 20.0651 48.5858 20.4029 48.7499 20.7102C48.8315 20.8141 48.9448 20.8965 49.0774 20.9483C49.2099 21 49.3564 21.0191 49.5007 21.0035C49.7109 21.0184 49.9195 20.9615 50.0816 20.8451C50.2153 20.7305 50.3013 20.581 50.3262 20.4198C50.3645 20.1876 50.3816 19.9532 50.3772 19.7188V19.009H52.018V19.6572C52.0641 20.2987 51.8648 20.9356 51.4507 21.4698C51.0736 21.898 50.4315 22.1122 49.4871 22.1122C48.5427 22.1122 47.8292 21.8834 47.425 21.4082Z" fill="#AFB1B8"/>
<path d="M54.2569 21.4376C53.8425 20.9888 53.6353 20.3347 53.6353 19.4695V16.4367C53.6353 15.5802 53.8425 14.932 54.2569 14.4921C54.6714 14.0521 55.3644 13.8331 56.336 13.8351C57.3008 13.8351 57.9904 14.0541 58.4049 14.4921C58.8193 14.932 59.03 15.5802 59.03 16.4367V19.4695C59.03 20.3259 58.8193 20.9829 58.3981 21.4346C57.9768 21.8863 57.2906 22.1122 56.336 22.1122C55.3814 22.1122 54.6748 21.8834 54.2569 21.4376ZM57.1004 20.7102C57.2488 20.429 57.3164 20.1211 57.2974 19.8126V16.0994C57.3165 15.7969 57.25 15.4949 57.1038 15.2195C57.0205 15.1133 56.9044 15.0296 56.7686 14.9777C56.6329 14.9258 56.483 14.908 56.336 14.9262C56.1886 14.9084 56.0384 14.9265 55.9022 14.9783C55.766 15.0301 55.6492 15.1136 55.5648 15.2195C55.4155 15.4941 55.3477 15.7965 55.3678 16.0994V19.8302C55.3472 20.1388 55.4148 20.4471 55.5648 20.7278C55.6605 20.8224 55.7785 20.8982 55.9109 20.9502C56.0434 21.0021 56.1872 21.029 56.3326 21.029C56.4781 21.029 56.6219 21.0021 56.7543 20.9502C56.8867 20.8982 57.0047 20.8224 57.1004 20.7278V20.7102Z" fill="#AFB1B8"/>
<path d="M61.0034 13.9236H62.77L64.0983 19.5192L65.4572 13.9236H67.1762L67.3495 22.0003H66.0789L65.943 16.3871L64.6317 22.0003H63.6125L62.2536 16.3665L62.1279 22.0003H60.8438L61.0034 13.9236Z" fill="#AFB1B8"/>
<path d="M69.33 13.9236H72.0817C73.6671 13.9236 74.4598 14.688 74.4598 16.217C74.4598 17.6814 73.6252 18.4126 71.956 18.4106H71.0184V22.0003H69.3198L69.33 13.9236ZM71.6809 17.3754C71.8487 17.3938 72.0192 17.3805 72.1805 17.3364C72.3417 17.2924 72.49 17.2186 72.6151 17.1202C72.8099 16.8474 72.8958 16.5271 72.8597 16.2082C72.8686 15.9618 72.8412 15.7154 72.7782 15.475C72.7539 15.3947 72.7114 15.3193 72.6531 15.2534C72.5948 15.1874 72.5218 15.1321 72.4384 15.0908C72.2026 14.9931 71.942 14.9487 71.6809 14.9618H71.0218V17.3754H71.6809Z" fill="#AFB1B8"/>
<path d="M76.9094 13.9236H78.7337L80.6056 22.0003H79.0225L78.6522 20.138H77.0249L76.6445 22.0003H75.0376L76.9094 13.9236ZM78.4687 19.2025L77.8335 15.8122L77.1982 19.2025H78.4687Z" fill="#AFB1B8"/>
<path d="M82.1172 13.9236H83.3062L85.5823 18.5309V13.9236H86.9922V22.0003H85.8609L83.5712 17.1906V22.0003H82.1138L82.1172 13.9236Z" fill="#AFB1B8"/>
<path d="M90.2946 18.9208L88.4023 13.9349H89.9956L91.1507 17.1376L92.2344 13.9349H93.7937L91.9252 18.9208V22.0003H90.2946V18.9208Z" fill="#AFB1B8"/>
<path d="M50.0478 25.5316V25.9539H48.6618V29.2359H48.0809V25.9539H46.688V25.5316H50.0478Z" fill="#AFB1B8"/>
<path d="M54.3926 29.2361H53.9441C53.8986 29.2386 53.8536 29.226 53.8184 29.2009C53.7845 29.1794 53.7585 29.1499 53.7437 29.1159L53.3428 28.2361H51.42L51.0191 29.1159C51.0077 29.1527 50.9868 29.1868 50.9579 29.2156C50.9224 29.2402 50.8777 29.2527 50.8322 29.2508H50.3838L52.0824 25.5467H52.6735L54.3926 29.2361ZM51.5796 27.8607H53.1831L52.5037 26.3532C52.4536 26.2392 52.4116 26.1227 52.378 26.0042C52.3542 26.0746 52.3338 26.142 52.3134 26.2007L52.2523 26.3561L51.5796 27.8607Z" fill="#AFB1B8"/>
<path d="M57.3213 28.8723C57.4277 28.8771 57.5342 28.8771 57.6406 28.8723C57.7325 28.8642 57.8234 28.8495 57.9124 28.8283C57.9956 28.8107 58.0774 28.7882 58.157 28.7609C58.2317 28.7345 58.3065 28.7022 58.3846 28.67V27.8369H57.7052C57.6884 27.8377 57.6715 27.8356 57.6558 27.8305C57.64 27.8255 57.6256 27.8177 57.6134 27.8076C57.6023 27.7993 57.5935 27.7889 57.5876 27.7772C57.5817 27.7655 57.5789 27.7529 57.5795 27.7401V27.4556H58.8976V28.8753C58.79 28.9417 58.6764 29.0006 58.5579 29.0513C58.4367 29.1029 58.3106 29.1451 58.1808 29.1774C58.0418 29.2127 57.8998 29.2382 57.7561 29.2537C57.5914 29.2694 57.4258 29.2773 57.2601 29.2771C56.9671 29.2792 56.6764 29.2324 56.404 29.1393C56.1497 29.051 55.9186 28.9193 55.7246 28.7521C55.5355 28.5832 55.3866 28.3839 55.2863 28.1654C55.1793 27.9199 55.1263 27.6593 55.1301 27.3969C55.1265 27.133 55.1783 26.8706 55.2829 26.6226C55.3807 26.4031 55.5299 26.2033 55.7212 26.0359C55.9151 25.8693 56.1462 25.7385 56.4006 25.6517C56.6915 25.5572 57.0003 25.5105 57.3111 25.5138C57.4692 25.5137 57.6272 25.5244 57.7833 25.5461C57.9214 25.5655 58.0568 25.597 58.1876 25.64C58.3064 25.6785 58.4203 25.7277 58.5273 25.7866C58.6314 25.8445 58.7302 25.9092 58.8229 25.9802L58.6598 26.209C58.647 26.2299 58.628 26.2475 58.6047 26.2598C58.5814 26.2722 58.5547 26.279 58.5273 26.2794C58.4897 26.2783 58.4532 26.2682 58.422 26.2501C58.371 26.2266 58.3167 26.1973 58.2555 26.1621C58.1833 26.123 58.1071 26.0896 58.0279 26.0623C57.9266 26.0273 57.8221 25.9998 57.7154 25.9802C57.5731 25.9576 57.4286 25.9468 57.2839 25.9479C57.0598 25.9458 56.8372 25.9806 56.6283 26.0506C56.4392 26.1161 56.2688 26.2161 56.1289 26.3439C55.9881 26.4771 55.8805 26.6338 55.8129 26.8044C55.6611 27.2056 55.6611 27.6381 55.8129 28.0393C55.8873 28.2135 56.003 28.3724 56.1526 28.5057C56.292 28.6328 56.4611 28.7328 56.6486 28.799C56.8647 28.863 57.0936 28.888 57.3213 28.8723Z" fill="#AFB1B8"/>
<path d="M62.7363 28.8135H64.5912V29.2359H62.1689V25.5316H62.7499L62.7363 28.8135Z" fill="#AFB1B8"/>
<path d="M66.5209 29.2359H65.9399V25.5316H66.5209V29.2359Z" fill="#AFB1B8"/>
<path d="M68.6816 25.5492C68.7161 25.5662 68.7462 25.5892 68.77 25.6167L71.2533 28.409C71.2499 28.3651 71.2499 28.321 71.2533 28.277C71.2533 28.236 71.2533 28.1949 71.2533 28.1568V25.517H71.7595V29.2362H71.4673C71.424 29.2392 71.3806 29.2321 71.3416 29.2156C71.3063 29.1972 71.2753 29.1733 71.2499 29.1452L68.77 26.3558C68.77 26.3998 68.77 26.4409 68.77 26.482C68.77 26.523 68.77 26.5612 68.77 26.5964V29.2362H68.2842V25.5316H68.5865C68.6193 25.5317 68.6517 25.5377 68.6816 25.5492Z" fill="#AFB1B8"/>
<path d="M76.0365 25.5316V25.9393H73.9778V27.1623H75.6458V27.5553H73.9778V28.8195H76.0365V29.2272H73.3799V25.5316H76.0365Z" fill="#AFB1B8"/>
<path d="M15.1618 2.65544L40.9568 8.97876V31.1367L15.1618 24.8164V2.65544ZM13.5073 0.766663V25.8927L42.6079 33.0285V7.90532L13.5073 0.766663Z" fill="#AFB1B8"/>
<path d="M29.1039 44.6922L0 37.5505V12.4271L29.1039 19.5658V44.6922Z" fill="#AFB1B8"/>
<path d="M13.9897 2.37093L39.4484 8.61494L28.6215 17.9648L3.1594 11.7179L13.9897 2.37093ZM13.5073 0.766663L0 12.4276L29.1039 19.5662L42.6078 7.90519L13.5073 0.766663Z" fill="#AFB1B8"/>
<path d="M30.7412 43.2788L42.6076 33.0315L30.7412 30.1192V43.2788Z" fill="#AFB1B8"/>
</svg>
