<svg width="45" height="42" viewBox="0 0 45 42" fill="none" xmlns="http://www.w3.org/2000/svg">
<path d="M7.4064 41.1014C7.42232 41.1018 7.43799 41.1049 7.4525 41.1106C7.46701 41.1163 7.48007 41.1245 7.49092 41.1346L7.70904 41.3431C7.53973 41.5118 7.33047 41.6468 7.09558 41.7388C6.82051 41.8391 6.52406 41.8875 6.22584 41.8809C5.9456 41.8859 5.66718 41.8408 5.4079 41.7482C5.17402 41.6632 4.96388 41.5356 4.79171 41.3739C4.616 41.2062 4.48066 41.0096 4.39365 40.7958C4.29836 40.5574 4.25131 40.3065 4.2546 40.0542C4.25073 39.8003 4.30159 39.548 4.40456 39.3103C4.4998 39.0951 4.64347 38.8986 4.82716 38.7322C5.01333 38.5691 5.23604 38.4408 5.48151 38.3555C5.75005 38.265 6.036 38.22 6.32399 38.2228C6.5915 38.2172 6.85759 38.2582 7.10649 38.3436C7.32243 38.425 7.5207 38.538 7.69268 38.6777L7.51 38.9004C7.49739 38.9161 7.4817 38.9297 7.46365 38.9407C7.4421 38.9535 7.41606 38.9594 7.39004 38.9573C7.36174 38.9556 7.33446 38.9474 7.31097 38.9336L7.21282 38.8743L7.0765 38.7985C7.01765 38.7704 6.95661 38.7458 6.89382 38.7251C6.81296 38.6999 6.73002 38.6801 6.64571 38.6659C6.53872 38.6487 6.43005 38.6408 6.32126 38.6422C6.11389 38.6399 5.90808 38.6737 5.71599 38.7417C5.53684 38.8046 5.37513 38.8999 5.24158 39.0212C5.10563 39.1503 5.00087 39.3018 4.93349 39.4667C4.8567 39.6553 4.81886 39.8542 4.82171 40.0542C4.81843 40.2574 4.85627 40.4595 4.93349 40.6513C5.00002 40.8147 5.10285 40.9653 5.23613 41.0943C5.361 41.2146 5.51579 41.3086 5.68872 41.3692C5.86669 41.4333 6.05773 41.4655 6.25038 41.4639C6.36166 41.4654 6.4729 41.4591 6.58301 41.445C6.76279 41.4259 6.93526 41.3716 7.0874 41.2862C7.16372 41.2425 7.23576 41.1934 7.30279 41.1393C7.33082 41.1161 7.36769 41.1026 7.4064 41.1014Z" fill="#AFB1B8"/>
<path d="M13.7046 40.0538C13.708 40.3052 13.6581 40.5549 13.5573 40.7906C13.4685 41.0043 13.3285 41.1993 13.1466 41.3626C12.9648 41.526 12.7451 41.654 12.5022 41.7382C11.9684 41.9151 11.3783 41.9151 10.8445 41.7382C10.6032 41.6527 10.3849 41.5244 10.2038 41.3615C10.0221 41.1952 9.88107 40.9985 9.78939 40.7835C9.59299 40.3063 9.59299 39.7847 9.78939 39.3075C9.8824 39.0923 10.0232 38.8951 10.2038 38.7271C10.3865 38.5694 10.6046 38.446 10.8445 38.3647C11.3776 38.1846 11.9691 38.1846 12.5022 38.3647C12.7444 38.4501 12.9635 38.5784 13.1456 38.7413C13.3251 38.906 13.4651 39.1001 13.5573 39.3123C13.6584 39.5495 13.7083 39.8009 13.7046 40.0538ZM13.132 40.0538C13.1363 39.8527 13.1013 39.6524 13.0284 39.4615C12.9673 39.298 12.868 39.1472 12.7367 39.0185C12.6088 38.8968 12.4514 38.8013 12.2759 38.739C11.888 38.6094 11.4587 38.6094 11.0708 38.739C10.8953 38.8013 10.7379 38.8968 10.6101 39.0185C10.4769 39.1464 10.3765 39.2974 10.3156 39.4615C10.1769 39.8472 10.1769 40.2604 10.3156 40.6461C10.3771 40.8099 10.4774 40.9608 10.6101 41.0891C10.738 41.2101 10.8954 41.3047 11.0708 41.3662C11.4594 41.4925 11.8873 41.4925 12.2759 41.3662C12.4513 41.3047 12.6087 41.2101 12.7367 41.0891C12.8674 40.9601 12.9667 40.8094 13.0284 40.6461C13.1016 40.4552 13.1366 40.2549 13.132 40.0538Z" fill="#AFB1B8"/>
<path d="M18.0014 40.6748L18.0587 40.8074C18.0805 40.76 18.0996 40.7174 18.1214 40.6748C18.1422 40.6302 18.1659 40.5867 18.1923 40.5445L19.5855 38.3439C19.6128 38.306 19.6373 38.2823 19.6646 38.2752C19.7016 38.2654 19.7404 38.2614 19.7791 38.2634H20.1908V41.8426H19.7028V39.2109C19.7028 39.1777 19.7028 39.1398 19.7028 39.0995C19.7001 39.0585 19.7001 39.0174 19.7028 38.9764L18.3013 41.2077C18.2836 41.2412 18.2551 41.2694 18.2193 41.2892C18.1835 41.3089 18.142 41.3193 18.0996 41.3191H18.0205C17.9781 41.3196 17.9364 41.3093 17.9005 41.2896C17.8647 41.2698 17.8363 41.2413 17.8188 41.2077L16.3765 38.9622C16.3765 39.0048 16.3765 39.0474 16.3765 39.0901C16.3765 39.1327 16.3765 39.1706 16.3765 39.2038V41.8355H15.9048V38.2634H16.3165C16.3552 38.2614 16.3939 38.2654 16.431 38.2752C16.4648 38.2898 16.4918 38.314 16.5073 38.3439L17.9305 40.5469C17.9585 40.5876 17.9822 40.6304 18.0014 40.6748Z" fill="#AFB1B8"/>
<path d="M23.2445 40.4969V41.8376H22.6992V38.2632H23.9152C24.1448 38.2594 24.3736 38.2858 24.5941 38.3414C24.7706 38.3849 24.9343 38.4608 25.074 38.5641C25.1951 38.6609 25.2884 38.7809 25.3466 38.9146C25.411 39.0604 25.4425 39.2157 25.4393 39.3718C25.4417 39.5285 25.4074 39.6841 25.3384 39.829C25.2729 39.9661 25.1722 40.0884 25.044 40.1866C24.9041 40.2942 24.7396 40.3749 24.5614 40.4235C24.3491 40.4824 24.1271 40.5104 23.9043 40.5064L23.2445 40.4969ZM23.2445 40.1132H23.9043C24.0476 40.1148 24.1903 40.0964 24.3269 40.0587C24.4396 40.0258 24.5435 39.9734 24.6323 39.9048C24.7142 39.8392 24.7776 39.7582 24.8177 39.6679C24.8623 39.5724 24.8846 39.4701 24.8831 39.3671C24.8895 39.2677 24.8708 39.1683 24.8284 39.0759C24.786 38.9834 24.721 38.9001 24.6377 38.8317C24.4294 38.6904 24.1678 38.622 23.9043 38.6399H23.2445V40.1132Z" fill="#AFB1B8"/>
<path d="M30.5731 41.8424H30.1423C30.0991 41.8439 30.0566 41.8322 30.0223 41.8093C29.9914 41.787 29.9671 41.7585 29.9514 41.7264L29.5806 40.8617H27.7185L27.334 41.7264C27.3199 41.758 27.2964 41.7858 27.2659 41.8069C27.2312 41.8312 27.1877 41.8438 27.1432 41.8424H26.7124L28.3483 38.2629H28.9154L30.5731 41.8424ZM27.8739 40.5134H29.4116L28.7627 39.0565C28.7131 38.9469 28.6721 38.8345 28.64 38.7201L28.5773 38.9072C28.5582 38.9641 28.5364 39.0162 28.5173 39.0589L27.8739 40.5134Z" fill="#AFB1B8"/>
<path d="M32.9292 38.2795C32.9617 38.2951 32.9898 38.317 33.0109 38.3435L35.3966 41.0418C35.3966 40.9991 35.3966 40.9565 35.3966 40.9162C35.3966 40.8759 35.3966 40.8357 35.3966 40.7978V38.263H35.8846V41.8425H35.612C35.5733 41.8435 35.5349 41.8362 35.5002 41.8212C35.4665 41.8041 35.4369 41.7816 35.413 41.7548L33.03 39.0589C33.0327 39.1 33.0327 39.1411 33.03 39.1821C33.03 39.2224 33.03 39.2579 33.03 39.2911V41.8425H32.542V38.263H32.831C32.8647 38.2621 32.8982 38.2678 32.9292 38.2795Z" fill="#AFB1B8"/>
<path d="M39.9031 40.4188V41.8402H39.3578V40.4188L37.8501 38.2631H38.3381C38.3802 38.2609 38.4218 38.2718 38.4554 38.2939C38.4851 38.3168 38.51 38.3441 38.529 38.3744L39.4724 39.765C39.5105 39.8242 39.5432 39.8787 39.5705 39.9308C39.5978 39.9829 39.6196 40.0327 39.6387 40.0824L39.7096 39.9285C39.736 39.8721 39.767 39.8175 39.8023 39.765L40.732 38.3649C40.7516 38.337 40.7754 38.3115 40.8029 38.2891C40.8352 38.2646 40.8772 38.2518 40.9201 38.2536H41.4136L39.9031 40.4188Z" fill="#AFB1B8"/>
<path d="M17.7314 32.2561C17.9686 32.2822 18.2086 32.3035 18.4512 32.3225C22.1301 30.8926 25.2422 28.5523 27.3987 25.5942C29.5552 22.636 30.6603 19.1912 30.5759 15.6904L26.5216 12.1678C27.346 15.8951 26.9604 19.7482 25.408 23.2959C23.8555 26.8437 21.1976 29.9461 17.7314 32.2561Z" fill="#AFB1B8"/>
<path d="M16.2837 32.0923L16.3928 32.1112C20.0966 29.8094 22.9205 26.5951 24.4993 22.8839C26.078 19.1727 26.3389 15.1353 25.2483 11.2939L19.4737 6.27673C21.8094 10.4008 22.7495 15.0162 22.1848 19.5862C21.6201 24.1562 19.5737 28.493 16.2837 32.0923Z" fill="#AFB1B8"/>
<path d="M35.8682 19.8266C34.8871 23.6732 32.5044 27.1423 29.0738 29.7189C28.0719 30.4756 26.9913 31.1497 25.8457 31.7325C28.6392 31.0191 31.2068 29.7579 33.3505 28.046C35.4943 26.3342 37.1569 24.2175 38.2103 21.8591L35.8682 19.8266Z" fill="#AFB1B8"/>
<path d="M34.949 19.2602L31.6146 16.363C31.5508 19.6661 30.47 22.8941 28.4845 25.7115C26.499 28.5288 23.6813 30.8328 20.3242 32.3838H20.3406C21.0887 32.3836 21.8362 32.3448 22.579 32.2677C25.7164 31.1551 28.488 29.385 30.6464 27.1153C32.8049 24.8456 34.283 22.147 34.949 19.2602Z" fill="#AFB1B8"/>
<path d="M16.7664 4.16095L12.7885 0.699997C9.23234 1.89395 6.17393 3.99288 4.01349 6.72207C1.85306 9.45126 0.691273 12.6836 0.680176 15.996H0.680176C0.693504 19.656 2.11139 23.2077 4.70941 26.0888C7.30743 28.97 10.9372 31.016 15.0242 31.9031C18.6726 28.041 20.8087 23.2688 21.122 18.2798C21.4353 13.2908 19.9095 8.34499 16.7664 4.16095Z" fill="#AFB1B8"/>
<path d="M44.1401 18.7273C44.1257 14.3849 42.1339 10.2238 38.5997 7.15321C35.0656 4.0826 30.2764 2.35202 25.2784 2.33952C22.9688 2.33744 20.6789 2.70772 18.5249 3.43156L42.8805 24.5927C43.7144 22.7221 44.1415 20.7333 44.1401 18.7273Z" fill="#AFB1B8"/>
</svg>
